<svg width="45" height="40" viewBox="0 0 45 40" fill="none" xmlns="http://www.w3.org/2000/svg">
<path d="M3.9973 26.8769C3.85946 26.7405 3.72162 26.6723 3.58378 26.6723C3.51487 26.3314 4.06622 26.536 3.85946 26.0587L3.9973 26.3314C4.41081 26.3314 4.61757 26.1269 4.34189 25.7178L4.20405 25.6496C4.61757 25.7178 4.20405 25.1041 4.47973 25.1723C4.61757 25.3769 4.7554 25.3769 4.82432 25.5132L5.37568 25.3087L4.89324 24.9678L5.16892 24.8996C5.37568 25.1041 5.16892 24.4905 5.65135 24.8314C5.51351 24.5587 5.23784 24.6269 4.96216 24.5587C5.16892 24.5587 4.96216 24.3541 5.30676 24.4905L4.89324 24.0814L5.37568 24.0132C5.30676 24.0132 5.30676 23.9451 5.23784 23.9451C5.72027 24.0814 5.23784 23.4678 5.99595 23.7405C5.99595 23.7405 5.92703 23.7405 5.92703 23.6723C6.34054 23.8087 6.2027 23.3996 6.2027 23.2632C6.40946 23.1951 6.68513 23.4678 6.89189 23.6042C7.02973 23.0587 6.96081 23.2632 7.78784 23.1951C7.37432 22.5814 6.68513 22.8541 6.47838 22.3087C6.75405 22.4451 7.09865 22.3769 7.37432 22.2405C7.30541 21.8996 7.37432 21.4905 7.09865 21.0132L7.44324 21.286L7.85676 21.1496L7.16757 20.9451C7.3054 21.0132 7.65 21.0132 7.92567 21.0132C8.40811 20.9451 7.16757 20.3314 7.92567 20.4678C7.85676 20.3996 7.85676 20.3996 7.78784 20.3996C8.13243 20.536 8.13243 20.2632 8.40811 20.1269L7.85676 19.9223V20.1269C7.44324 19.7178 8.06351 19.9223 8.13243 19.786C8.40811 19.7178 8.7527 20.0587 8.95946 20.0587C8.95946 19.9905 9.16622 19.9905 9.02838 19.8542C8.95946 19.6496 8.47703 19.4451 8.20135 19.3769C8.7527 19.5814 8.7527 19.5132 9.0973 19.3769C8.89054 19.2405 8.7527 19.1723 8.68378 19.1723C8.7527 19.1723 8.89054 19.1723 9.16622 19.3087L8.95946 19.036C8.7527 18.4905 10.0622 19.3087 10.1311 18.8996C9.78649 18.8314 10.4068 18.6269 10.1311 18.3541C9.99324 18.4223 9.44189 17.8087 9.0973 17.7405C9.0973 17.3314 9.71757 18.0132 9.99324 17.8769L9.30405 17.6041C9.71757 17.536 9.64865 17.7405 9.99324 17.6723C9.78649 17.6041 9.92432 17.4678 9.57973 17.4678C9.71757 17.1269 9.71757 17.2632 9.78649 16.9905L10.4068 17.3314C10.5446 17.2632 10.2689 17.0587 10.2 16.9905C10.2 16.9905 10.1311 17.0587 10.0622 17.0587C9.57973 16.6496 10.4757 17.0587 10.0622 16.6496C10.2 16.786 10.4757 16.9905 10.5446 16.9223C10.1311 16.7178 10.3378 16.5814 10.1311 16.4451C10.3378 16.6496 10.4068 16.3087 10.7514 16.5132C10.5446 16.2405 10.4757 16.3769 10.2689 16.2405C10.8203 16.4451 10.6135 15.8314 10.8892 15.9678C10.8203 15.9678 10.8203 15.8996 10.8203 15.8996C11.1649 15.9678 11.3716 15.7632 11.923 15.7632L11.5095 15.6269C11.5095 15.286 12.3365 15.8996 12.4054 15.6951C11.923 15.4223 12.6811 15.3541 12.0608 15.1496C12.4054 15.2178 12.6122 15.1496 13.0946 15.3541C12.8878 15.0814 12.2676 15.1496 12.2676 14.8769H12.6122L12.4054 14.6723C12.6122 14.8087 12.75 14.6723 12.8878 14.7405C12.6122 14.536 12.4054 14.3314 12.1986 14.1269C12.3365 14.0587 12.1297 13.7178 12.4743 13.786L12.3365 13.6496C12.9568 13.9223 12.6811 13.3769 13.3014 13.7178L13.0257 13.4451C13.1635 13.3087 13.7838 13.7178 13.9905 13.7178C14.0595 13.6496 14.1973 13.6496 14.1973 13.5132C13.6459 13.5132 13.7838 13.1041 13.6459 12.8996C13.7149 12.8314 13.9216 12.5587 14.2662 12.6951C13.9216 12.6269 13.7149 12.3541 13.5081 12.5587C12.9568 12.0814 13.8527 12.3541 13.8527 12.0814L13.577 11.8769C13.9216 11.6723 14.4041 11.9451 14.9554 12.1496C14.6108 11.8769 14.5419 11.8769 14.1284 11.7405C14.0595 11.3996 14.473 11.2632 14.6108 10.9905C14.4041 10.786 14.2662 10.7178 14.1284 10.7178C14.5419 10.6496 14.4041 10.1723 15.0932 10.3769C14.8176 10.3087 15.0243 10.1723 14.9554 10.036L15.2311 10.1723C15.5757 10.1723 15.9892 10.036 15.8514 9.69506H15.6446C15.7824 9.21778 16.8851 9.69506 16.7473 9.01324C16.6784 8.87688 16.1959 8.80869 16.3338 8.60415C16.6095 8.67233 17.023 9.01324 17.023 8.67233L16.6095 8.46779L17.0919 8.60415C17.3676 8.87688 17.0919 9.01324 17.5743 9.08142C17.2986 8.67233 18.0568 9.1496 17.7122 8.67233C17.6432 8.67233 17.2986 8.60415 17.0919 8.53597C16.8851 7.78597 17.85 8.12688 17.6432 7.37688C18.1257 7.37688 18.3324 7.10415 18.7459 7.10415C18.3324 6.8996 17.9878 6.62688 17.6432 6.55869C17.7122 6.35415 18.677 6.83142 18.1946 6.28597C18.8149 6.55869 18.8838 5.94506 19.6419 6.42233C19.5041 6.28597 19.7797 6.21778 19.2284 6.1496C19.6419 6.01324 18.8149 5.3996 18.8838 5.26324C18.9527 5.19506 19.2973 5.67233 19.4351 5.46778C19.4351 5.3996 19.3662 5.3996 19.2973 5.33142L19.5041 5.3996C19.3662 5.19506 19.0905 5.26324 18.8838 5.12688C18.8838 4.78597 19.573 5.05869 19.7797 4.78597L19.6419 4.71779L19.7797 4.44506H19.7108L20.1243 4.37688L19.9176 4.24051C19.9865 4.24051 20.1243 4.30869 20.1932 4.24051L19.9176 4.10415C20.3311 4.24051 20.6757 4.17233 20.7446 4.03597L20.6757 3.96779H21.3649C21.227 3.62688 20.6757 3.83142 21.0203 3.62688L20.4689 3.42233C20.8135 3.35415 20.5378 3.1496 20.8135 3.08142C21.0203 3.28597 20.9513 3.42233 21.1581 3.42233C20.6757 2.87688 21.5027 3.21779 21.7784 3.21779C21.7095 3.28597 21.7095 3.35415 21.3649 3.21779C21.2959 3.28597 21.6405 3.42233 21.5716 3.49051L21.227 3.42233L21.5716 3.69506L21.1581 3.76324C21.5716 3.96778 21.0892 3.96778 21.5716 4.17233C21.2959 4.24051 21.5716 4.51324 21.0892 4.37688C21.2959 4.6496 21.5027 4.37688 21.4338 4.51324C20.7446 4.92233 20.4 5.53597 20.1932 6.28597L20.4 6.35415C20.1932 6.28597 19.9865 6.28597 19.8486 6.21778C20.1243 6.55869 20.2622 7.17233 19.573 6.96779C19.573 7.03597 19.7108 7.03597 19.7797 7.03597C19.573 7.17233 19.7797 7.85415 19.5041 8.12688C18.8149 7.85415 19.6419 8.80869 18.677 8.3996L18.8838 8.46779C18.677 8.19506 18.1946 8.26324 17.9878 8.12688C18.4703 8.53597 18.4014 8.3996 18.8838 8.80869L18.7459 8.53597L19.1595 8.87688C17.7811 8.46778 19.2973 9.8996 18.2635 9.62688C18.3324 9.62688 18.4014 9.69506 18.4703 9.69506C18.6081 10.036 17.9878 9.76324 17.7811 9.76324C17.9878 9.8996 18.1946 9.8996 18.4014 9.96778C18.4014 10.3769 17.5054 10.4451 17.7122 10.9223C17.3676 10.8541 17.2986 10.6496 17.023 10.5814C17.023 10.7178 17.2297 10.9223 17.5054 10.9223C17.9189 11.536 16.6095 11.536 16.8851 12.286C16.4027 12.286 16.3338 12.0814 15.9203 12.2178C16.1959 12.286 16.6095 12.7632 16.7473 12.6269L17.023 12.7632C16.8851 13.1041 16.6784 13.5814 15.9203 13.3087C16.4027 13.6496 15.9892 13.4451 16.1959 13.7178C16.127 13.7178 16.127 13.6496 16.127 13.6496C15.6446 13.5132 16.0581 13.8541 15.9203 13.8541H16.0581H15.5757C15.6446 13.9223 15.6446 14.0587 15.8514 14.1269L15.5068 13.9223C15.4378 14.0587 15.9203 14.2632 15.7135 14.3314L15.5068 14.1269C15.5757 14.3314 15.1622 14.2632 15.5068 14.536C15.5757 14.6041 15.5757 14.536 15.5757 14.536C15.9892 15.0132 15.1622 14.8087 15.3 15.1496L14.7486 14.7405C14.473 14.8087 14.8176 14.9451 15.0243 15.0132C14.9554 15.1496 15.0932 15.286 15.0932 15.4905C14.8865 15.4905 14.8865 15.4223 14.6797 15.3541L14.7486 15.6269L15.0932 15.6951C14.1284 15.4223 14.8176 16.3769 13.9216 16.1041C13.9905 16.3087 14.3351 16.2405 14.4041 16.3769C14.6108 16.9223 13.4392 16.7178 13.7149 17.1951C13.8527 17.8769 13.1635 18.0814 13.1635 18.6951L13.0257 18.5587L12.8189 19.1041C12.4054 18.9678 12.4743 19.3087 11.9919 19.1723C12.1297 19.2405 12.2676 19.3769 12.4054 19.3769C12.2676 19.5132 11.9919 19.5132 12.1986 19.7178L12.3365 19.786C12.2676 20.1269 11.9919 20.6042 11.5784 20.536C11.5095 20.6042 11.7851 20.8087 11.923 20.9451C11.8541 21.1496 11.5784 21.1496 11.3027 21.1496C11.3716 21.2178 11.3716 21.286 11.5095 21.4223L11.0959 21.286C11.0959 21.4223 11.3716 21.4905 11.4405 21.6269C10.8203 21.6269 11.027 22.1723 10.8892 22.3769L10.7514 22.2405C10.5446 22.2405 10.7514 22.5814 10.9581 22.5814C10.9581 23.1269 10.0622 22.786 9.78649 23.3314C10.4068 23.8087 9.30405 23.6723 9.99324 24.2178C9.64865 24.286 9.8554 24.6269 9.37297 24.4905C9.44189 24.5587 9.44189 24.5587 9.51081 24.5587C9.71757 24.8314 9.37297 24.9678 9.02838 25.1041L9.23513 25.2405C8.68378 25.036 8.61486 25.4451 8.06351 25.2405C8.13243 25.3087 8.27027 25.3087 8.40811 25.3769C8.82162 25.786 8.06351 25.4451 8.06351 25.6496C8.20135 25.7178 8.27027 25.8541 8.40811 25.8541C8.61486 26.6723 7.30541 26.8087 7.30541 27.6951C7.23649 27.8996 6.82297 27.286 6.75405 27.5587C6.96081 27.7632 7.30541 27.7632 7.37432 27.9678C7.02973 27.8996 7.02973 27.9678 6.96081 28.1041C7.16757 28.1723 7.23649 28.3087 7.37432 28.2405C7.51216 28.4451 6.75405 28.3087 7.09865 28.786C6.96081 28.6496 6.82297 28.6496 6.75405 28.6496C6.2027 28.5814 6.82297 29.4678 6.61622 29.3314C6.61622 29.3314 6.47838 29.3996 6.47838 29.2632C6.40946 29.3314 6.40946 29.536 6.68514 29.6723C6.5473 29.6041 6.27162 29.536 6.2027 29.6041L6.47838 29.7405C6.40946 29.7405 6.2027 29.6723 6.13378 29.6723L5.99595 29.4678C6.2027 29.7405 5.51351 29.536 5.99595 29.8769L6.13378 30.2178C5.92703 30.1496 5.65135 30.1496 5.65135 30.286C6.2027 30.6951 5.58243 30.6951 5.51351 30.8996L5.72027 31.036C5.37568 30.9678 5.30676 31.3769 5.23784 31.2405C5.16892 31.3769 5.16892 31.6496 5.37568 31.6496C5.16892 31.6496 5.1 31.9223 4.68649 31.7178L5.03108 32.1951C4.27297 31.8541 5.03108 32.7405 4.27297 32.2632C4.34189 32.4678 4.47973 32.536 4.61757 32.6723C4.13514 32.6041 4.13513 32.8087 4.06622 33.0132L4.13513 33.0814C4.06622 33.286 3.58378 33.2178 3.44595 33.4223L3.9973 33.8314C3.85946 33.8996 3.37703 33.6269 3.44595 33.8314C3.51486 33.8996 3.58378 33.8996 3.58378 33.8996C3.37703 33.9678 3.44595 34.1723 3.51486 34.3769C3.03243 34.3087 3.10135 34.5132 2.55 34.3769C2.96351 34.8541 2.8946 34.3087 3.30811 34.7178C3.44595 35.1269 2.96351 35.1951 2.61892 35.3314C2.68784 35.3996 2.82568 35.4678 2.96351 35.536C2.96351 35.536 1.24054 35.1951 0.827027 34.786C0.413514 34.6496 0.137838 34.5814 0 34.1042C0.275676 34.1723 0.68919 34.1042 0.275676 33.8314L0.689189 34.036C1.03378 33.8314 -0.0689184 33.4905 0.137838 33.1496L0.206757 33.286C0.275676 33.2178 0.551352 33.3542 0.482433 33.1496C0.413514 33.0814 0.275676 33.0814 0.206757 33.0132H0.895947C0.68919 32.8769 0.551351 32.8087 0.344595 32.7405C0.551351 32.4678 1.03378 33.286 1.1027 32.8087C0.964865 32.6042 0.827027 32.6723 0.689189 32.6723C0.482432 32.3314 0.827027 32.3996 1.1027 32.3314C0.758108 32.1269 0.758108 32.2632 0.62027 31.9905C0.758108 32.1269 1.1027 32.3314 1.17162 32.2632C0.758109 32.0587 1.03378 32.0587 1.03378 31.9223C1.17162 31.9905 1.30946 32.1269 1.37838 32.1269C1.4473 32.1269 1.37838 31.9905 1.4473 31.9223L1.72297 32.2632C2.13649 32.3314 1.72297 31.8541 1.65405 31.6496C1.58513 31.6496 1.51622 31.5814 1.51622 31.6496C1.4473 31.4451 1.24054 31.1042 1.65405 31.1042H1.58514C2.13649 30.9678 2.13649 31.5814 2.68784 31.3769C2.68784 31.1723 1.51622 30.6951 2.06757 30.6951C2.27432 31.036 2.89459 30.9678 3.17027 30.8996L2.41216 30.6269C2.48108 30.5587 2.68784 30.5587 2.68784 30.4905L2.82568 30.6269C3.37703 31.036 2.8946 30.3541 3.30811 30.4905C2.41216 30.1496 2.55 30.2178 1.79189 29.7405C2.27432 29.8769 2.75676 30.0132 2.82568 29.7405L2.13649 29.536C2.20541 29.1951 3.30811 29.3996 3.92838 29.4678C3.44595 29.2632 3.30811 29.0587 2.89459 28.9223L3.17027 28.7178L2.61892 28.5132C3.17027 28.7178 2.89459 28.3769 3.58378 28.786C3.44595 28.786 3.37703 28.7178 3.37703 28.786C3.58378 28.9223 3.9973 29.1269 4.06622 28.9223C3.9973 28.7178 3.79054 28.786 3.58378 28.6496C3.92838 28.7178 3.51486 28.4451 3.72162 28.4451L3.92838 28.7178C4.34189 28.9223 4.06622 28.5814 4.27297 28.5814C4.06622 28.5814 3.85946 28.4451 3.6527 28.2405L3.72162 28.3087C3.79054 28.2405 4.13514 28.3087 3.92838 28.1723L3.17027 27.9678L3.58378 28.1041C3.51487 28.036 3.37703 27.8996 3.23919 27.8996C3.10135 27.3541 4.34189 28.6496 4.13513 27.8996C3.92838 27.7632 3.79054 27.7632 3.79054 27.8996C3.44595 27.6951 3.30811 27.5587 3.23919 27.3542C3.23919 27.3542 3.17027 27.3541 3.17027 27.286C3.37703 27.1496 3.51487 26.8087 3.9973 26.8769Z" fill="#FDC55E"/>
<path d="M30.9446 6.8314C31.0824 6.76321 31.2203 6.69503 31.3581 6.55867C31.7027 6.69503 31.2203 7.03594 31.7716 7.10412H31.4959C31.2892 7.44503 31.427 7.78594 31.9095 7.71776L32.0473 7.5814C31.8405 7.9223 32.5986 7.78594 32.323 8.05867C32.1162 8.12685 32.0473 8.19503 31.8405 8.19503L31.7716 8.74049L32.323 8.46776L32.1162 8.74049C31.8405 8.80867 32.4608 8.94503 31.9095 9.21776C32.1851 9.21776 32.323 8.94503 32.4608 8.80867C32.3919 9.01321 32.5986 8.87685 32.3919 9.14958L32.9432 9.01321L32.8054 9.49049C32.8743 9.42231 32.8743 9.42231 32.9432 9.42231C32.5986 9.76321 33.4257 9.62685 32.8054 10.1723C32.8054 10.1723 32.8743 10.1723 32.8743 10.1041C32.5297 10.445 32.9432 10.5132 33.0811 10.5132C33.0811 10.7178 32.6676 10.8541 32.4608 10.9223C32.8743 11.3314 32.7365 11.195 32.3919 11.8769C33.15 11.7405 33.2189 11.0587 33.7703 11.1268C33.4946 11.3314 33.3567 11.6723 33.4257 11.945C33.7703 12.0132 34.1149 12.2859 34.6662 12.2859L34.2527 12.4905L34.1838 12.9678L34.6662 12.4905C34.5284 12.6268 34.3905 12.8996 34.2527 13.1041C34.1149 13.5814 35.2176 12.7632 34.7351 13.3769C34.804 13.3769 34.804 13.3768 34.873 13.3087C34.5973 13.5814 34.873 13.7178 34.873 13.9905L35.3554 13.6496L35.1486 13.5814C35.7 13.3769 35.2176 13.8541 35.3554 13.9905C35.2865 14.2632 34.804 14.3996 34.7351 14.5359C34.804 14.6041 34.6662 14.7405 34.873 14.6723C35.0797 14.7405 35.4932 14.3314 35.7 14.195C35.2176 14.6041 35.3554 14.6041 35.2865 14.945C35.5622 14.8087 35.6311 14.7405 35.7 14.6723C35.7 14.7405 35.5622 14.8768 35.3554 15.0132L35.7 14.945C36.3203 15.0132 34.9419 15.7632 35.2865 16.0359C35.4932 15.7632 35.4243 16.3769 35.7689 16.3087C35.7689 16.1723 36.527 15.9678 36.8027 15.695C37.1473 15.8996 36.2513 16.1723 36.2513 16.445L36.8027 15.9678C36.6649 16.3087 36.527 16.2405 36.4581 16.5132C36.5959 16.3769 36.6649 16.5132 36.8027 16.2405C37.0095 16.5132 36.9405 16.445 37.1473 16.6496L36.527 16.9905C36.527 17.1269 36.8027 16.9905 36.9405 16.9223C36.9405 16.8541 36.8716 16.8541 36.9405 16.7859C37.5608 16.5814 36.7338 17.1268 37.2851 16.9223C37.0784 16.9905 36.8027 17.1268 36.8027 17.2632C37.1473 16.9905 37.2162 17.2632 37.423 17.1269C37.1473 17.195 37.423 17.3996 37.0095 17.6723C37.354 17.6041 37.2851 17.4678 37.4919 17.3314C37.0784 17.6723 37.6986 17.8087 37.4919 18.0132C37.5608 18.0132 37.5608 18.0132 37.5608 17.945C37.354 18.2178 37.423 18.4905 37.1473 18.9678L37.423 18.695C37.6986 18.8314 36.8027 19.2405 36.9405 19.445C37.423 19.1041 37.0784 19.7859 37.6297 19.445C37.423 19.7178 37.354 19.9223 37.0095 20.2632C37.354 20.195 37.5608 19.6496 37.7676 19.7178L37.6297 20.0587L37.9054 19.9223C37.6986 20.0587 37.7676 20.195 37.6297 20.2632C37.9743 20.1268 38.25 20.0587 38.4567 19.9223C38.4567 20.0587 38.8013 20.0587 38.5946 20.3314L38.7324 20.2632C38.1811 20.7405 38.8013 20.6723 38.25 21.0814L38.6635 20.945C38.7324 21.1496 38.0432 21.4905 37.9743 21.6269C37.9743 21.695 37.9743 21.8314 38.0432 21.8996C38.3189 21.4223 38.5946 21.7632 38.8703 21.695C38.9392 21.7632 39.0081 22.0359 38.8013 22.3087C39.077 22.0359 39.3527 21.9678 39.2838 21.7632C39.973 21.5587 39.3527 22.1041 39.5595 22.3087L39.8351 22.1723C39.8351 22.5814 39.3527 22.8541 38.9392 23.2632C39.2838 23.1268 39.3527 22.9905 39.6973 22.7178C40.0419 22.7859 39.973 23.2632 40.1797 23.4678C40.4554 23.3996 40.5932 23.2632 40.6622 23.1268C40.5243 23.5359 41.0757 23.6041 40.5243 24.1496C40.7311 23.945 40.7311 24.1496 40.9378 24.1496C40.8 24.2178 40.6622 24.3541 40.6622 24.3541C40.5243 24.6268 40.4554 25.1041 40.8 25.1723L40.9378 25.0359C41.2824 25.3768 40.3176 26.1268 41.0068 26.3314C41.2135 26.3314 41.4892 25.9905 41.5581 26.1268C41.3513 26.3314 40.8689 26.5359 41.1446 26.6723L41.5581 26.3996L41.2135 26.7405C40.8 26.8768 40.8 26.5359 40.5243 26.945C41.0067 26.945 40.2486 27.2859 40.8 27.2859C40.8 27.2178 41.0757 26.945 41.2135 26.8768C41.9716 27.0814 41.2135 27.7632 41.9716 27.8996C41.7649 28.3087 41.9027 28.6496 41.6959 28.9905C42.1095 28.7178 42.4541 28.5814 42.7297 28.2405C42.8676 28.3768 42.0405 28.9905 42.7297 28.7859C42.2473 29.195 42.7297 29.5359 41.9716 30.0132C42.1095 29.945 42.1095 30.2178 42.3851 29.7405C42.3162 30.1496 43.2811 29.7405 43.35 29.8087C43.35 29.8768 42.7986 30.0132 42.8676 30.1496C42.9365 30.1496 43.0054 30.0814 43.0054 30.0814L42.8676 30.2178C43.0743 30.1496 43.2122 29.945 43.4189 29.8087C43.6946 29.945 43.2122 30.4223 43.2811 30.695L43.4189 30.5587L43.6257 30.8314L43.6946 30.7632L43.5567 31.1041L43.7635 30.9678C43.7635 31.0359 43.6257 31.1041 43.6257 31.2405L43.8324 31.1041C43.4878 31.3768 43.4189 31.7859 43.4878 31.8541L43.6257 31.7859L43.2811 32.3314C43.6257 32.3314 43.7635 31.7859 43.7635 32.195L44.2459 31.8541C44.177 32.195 44.4527 32.0587 44.3838 32.3314C44.1081 32.3996 44.0392 32.2632 43.9013 32.4678C44.5905 32.3314 43.9013 32.8087 43.7635 33.1496C43.6946 33.0814 43.6946 33.0132 43.9703 32.8087C43.9013 32.7405 43.6946 32.945 43.6257 32.8768L43.8324 32.6041L43.4878 32.7405L43.6257 32.3996C43.2122 32.6723 43.4878 32.2632 43.0743 32.5359C43.1432 32.2632 42.7986 32.3996 43.1432 31.9905C42.8676 32.0587 42.9365 32.3314 42.8676 32.2632C42.7986 31.5132 42.3851 30.8996 41.9027 30.3541L41.6959 30.8314C41.8338 30.695 41.9716 30.4905 42.0405 30.3541C41.627 30.4223 41.0067 30.2859 41.4892 29.7405C41.4203 29.7405 41.3513 29.8087 41.3513 29.8768C41.2824 29.6041 40.6622 29.4678 40.5243 29.195C41.0757 28.7178 39.8351 28.9905 40.6622 28.3768L40.5243 28.5132C40.8 28.445 41.0757 28.0359 41.2135 27.8996C40.5932 28.1041 40.8 28.1723 40.1797 28.3087H40.4554L39.973 28.5132C40.9378 27.4905 39.0081 28.1041 39.7662 27.4223C39.6973 27.4905 39.6284 27.4905 39.6284 27.5587C39.2838 27.5587 39.7662 27.0814 39.904 26.8768C39.6284 27.0132 39.5595 27.1496 39.4216 27.3541C39.077 27.2178 39.4216 26.3996 38.8703 26.2632C39.1459 25.9905 39.3527 26.0587 39.4905 25.7859C39.3527 25.7178 39.077 25.8541 38.9392 26.0587C38.1811 26.1268 38.8013 24.9678 38.0432 24.8996C38.25 24.4905 38.5257 24.5587 38.5257 24.0814C38.3189 24.3541 37.6297 24.4905 37.7676 24.695L37.5608 24.8314C37.2851 24.5587 36.9405 24.1496 37.5608 23.6041C37.0095 23.8769 37.423 23.6041 37.0784 23.6041C37.0784 23.5359 37.1473 23.5359 37.2162 23.5359C37.5608 23.195 37.0784 23.3996 37.0784 23.2632L36.9405 23.3996L37.1473 22.9905C37.0784 22.9905 36.9405 22.9905 36.7338 23.0587L37.0784 22.8541C37.0094 22.7178 36.5959 23.0587 36.5959 22.8541L36.8716 22.7178C36.6649 22.7178 36.9405 22.3768 36.527 22.5814C36.4581 22.6496 36.4581 22.6496 36.527 22.6496C35.9067 22.7859 36.4581 22.1723 36.1135 22.1041L36.7338 21.8314C36.8027 21.5587 36.527 21.7632 36.3203 21.8996C36.2513 21.7632 36.0446 21.8314 35.9067 21.695C35.9757 21.5587 36.1135 21.5587 36.2513 21.4223L35.9757 21.3541L35.7 21.6269C36.3892 20.8769 35.2176 21.0132 35.9067 20.4678C35.7 20.4678 35.6311 20.7405 35.4932 20.7405C34.9419 20.6723 35.6311 19.7859 35.0797 19.7178C34.3905 19.5132 34.5284 18.8314 33.977 18.5587L34.1149 18.4905L33.7703 18.2178C34.0459 17.945 33.7703 17.8087 34.1149 17.4678C33.977 17.5359 33.7703 17.6041 33.7013 17.7405C33.6324 17.6041 33.7703 17.3314 33.4946 17.3996L33.3567 17.5359C33.0811 17.2632 32.8054 16.8541 33.0122 16.5132C33.0122 16.3769 32.7365 16.5814 32.5297 16.6496C32.3919 16.5132 32.4608 16.3087 32.6676 15.9678C32.5986 15.9678 32.4608 15.9678 32.323 16.0359L32.6676 15.7632C32.5986 15.695 32.323 15.8996 32.1851 15.8996C32.4608 15.3541 31.8405 15.2859 31.7716 15.0814L31.9784 15.0132C32.0473 14.8768 31.7027 14.8769 31.5649 15.0814C31.0824 14.8087 31.8405 14.195 31.427 13.7178C30.6689 14.0587 31.3581 13.1723 30.5311 13.5132C30.6 13.1723 30.1865 13.2405 30.5311 12.8314C30.4622 12.8996 30.3932 12.8996 30.3932 12.8996C30.0486 12.9678 30.1176 12.5587 30.1865 12.2178L29.9108 12.3541C30.3932 12.0132 29.9797 11.6723 30.4622 11.3314C30.3243 11.3996 30.2554 11.4678 30.1865 11.6041C29.6351 11.7405 30.3243 11.2632 30.1176 11.195C29.9797 11.2632 29.8419 11.3314 29.773 11.3996C28.9459 11.195 29.4284 9.96776 28.6703 9.55867C28.5324 9.4223 29.2216 9.35412 29.0838 9.0814C28.8081 9.14958 28.6013 9.49049 28.4635 9.42231C28.7392 9.14958 28.6013 9.14958 28.5324 9.01321C28.3946 9.14958 28.2567 9.14958 28.1878 9.35412C27.9122 9.42231 28.3946 8.80867 27.8432 8.87685C27.9811 8.80867 28.05 8.74049 28.1189 8.60412C28.3946 8.12685 27.3608 8.3314 27.5676 8.12685C27.5676 8.12685 27.5676 7.99049 27.7054 8.05867C27.6365 7.99049 27.4986 7.92231 27.223 8.05867C27.3608 7.92231 27.4986 7.78594 27.4986 7.71776L27.223 7.9223C27.2919 7.85412 27.4297 7.71776 27.4297 7.64958L27.6365 7.5814C27.3608 7.64958 27.7743 7.10412 27.223 7.37685V7.44503L26.8784 7.37685C27.0851 7.17231 27.223 6.96776 27.0851 6.89958C26.4649 7.1723 26.7405 6.62685 26.6027 6.49049L26.3959 6.62685C26.6027 6.35412 26.2581 6.0814 26.3959 6.0814C26.327 5.94503 26.0513 5.87685 25.9135 6.01321C25.9824 5.87685 25.8446 5.67231 26.1203 5.39958L25.5 5.46776C26.1203 4.9223 25.0176 5.19503 25.7757 4.78594C25.5689 4.71776 25.4311 4.85412 25.2243 4.85412C25.5 4.51321 25.3622 4.37685 25.1554 4.24049L25.2243 4.1723C25.0865 4.03594 25.3622 3.62685 25.2243 3.4223L24.604 3.69503C24.604 3.55867 25.0176 3.21776 24.8797 3.21776C24.7419 3.21776 24.7419 3.28594 24.7419 3.35412C24.8108 3.14958 24.5351 3.0814 24.3284 3.0814C24.673 2.6723 24.3973 2.60412 24.7419 2.19503C24.1216 2.3314 24.604 2.53594 24.0527 2.67231C23.6392 2.60412 23.777 2.19503 23.8459 1.78594C23.7081 1.85412 23.6392 1.92231 23.5013 1.99049C23.5013 1.99049 24.604 0.695032 25.2243 0.422305C25.5689 0.149578 25.7757 -0.0549672 26.1892 0.0132147C25.9824 0.21776 25.8446 0.558669 26.327 0.354123L25.9135 0.626851C25.9135 1.03594 26.7405 0.21776 26.9473 0.558669H26.7405C26.7405 0.626851 26.5338 0.831396 26.7405 0.831396C26.8784 0.763214 26.8784 0.695033 26.9473 0.626851L26.6027 1.24049C26.8784 1.10412 26.9473 1.03594 27.0851 0.899578C27.223 1.17231 26.327 1.24049 26.6716 1.51321C26.8784 1.44503 26.8784 1.37685 27.0162 1.24049C27.4297 1.17231 27.223 1.51321 27.0851 1.78594C27.4297 1.5814 27.3608 1.51321 27.6365 1.51321C27.6365 1.51321 27.2919 1.64958 27.2919 1.78594C27.6365 1.51321 27.5676 1.78594 27.7054 1.78594C27.5676 1.85412 27.4297 1.92231 27.3608 1.99049C27.3608 2.05867 27.4986 2.05867 27.4986 2.12685L27.0851 2.19503C26.8784 2.53594 27.4297 2.3314 27.7054 2.39958C27.7743 2.3314 27.7743 2.3314 27.7743 2.26321C27.9811 2.3314 28.3946 2.3314 28.1878 2.67231L28.2567 2.60412C28.1189 3.14958 27.5676 2.80867 27.4986 3.4223C27.6365 3.49049 28.6703 2.67231 28.3946 3.21776C27.9811 3.28594 27.7743 3.8314 27.7054 4.10412L28.3257 3.55867C28.3946 3.62685 28.2567 3.8314 28.3257 3.8314L28.1878 3.89958C27.5676 4.24049 28.3946 4.03594 28.1189 4.37685C28.877 3.76321 28.6703 3.8314 29.4973 3.35412C29.1527 3.69503 28.8081 4.10412 29.0149 4.24049L29.5662 3.69503C29.9108 3.89958 29.1527 4.78594 28.8081 5.26321C29.2216 4.92231 29.4284 4.92231 29.773 4.64958L29.8419 4.99049L30.3243 4.64958C29.8419 5.05867 30.3243 4.99049 29.6351 5.3314C29.704 5.26321 29.773 5.19503 29.704 5.19503C29.4973 5.3314 29.0838 5.60412 29.2216 5.74049C29.4284 5.74049 29.4284 5.53594 29.6351 5.46776C29.4284 5.74049 29.8419 5.46776 29.704 5.67231L29.3595 5.74049C29.0149 6.01321 29.4284 5.87685 29.2905 6.0814C29.3595 5.87685 29.6351 5.80867 29.9108 5.67231H29.8419C29.8419 5.74049 29.6351 6.01321 29.9108 5.94503L30.3932 5.60412L30.0486 5.94503C30.1176 5.94503 30.3243 5.87685 30.3932 5.74049C30.9446 5.87685 29.2216 6.35412 29.9797 6.49049C30.1865 6.35412 30.2554 6.21776 30.1176 6.21776C30.4622 6.01321 30.6689 5.94503 30.8067 6.01321H30.8757C31.0135 6.21776 31.2203 6.49049 30.9446 6.8314Z" fill="#ED3024"/>
<path d="M35.631 39.1496C35.5621 39.3541 35.631 39.4905 35.7 39.6269C35.4243 39.8314 35.2864 39.286 35.0108 39.695L35.1486 39.4905C34.9419 39.1496 34.5973 39.0814 34.3905 39.5587L34.4594 39.695C34.2527 39.286 33.977 40.036 33.9081 39.695C33.977 39.4905 33.9081 39.3541 34.0459 39.1496L33.5635 38.7405L33.4946 39.4223L33.2189 39.2178C33.2878 38.945 32.8743 39.4223 32.8743 38.8087C32.7365 39.0132 32.9432 39.286 32.9432 39.5587C32.8054 39.3541 32.8054 39.6269 32.6675 39.286L32.5297 39.8314L32.1851 39.4223V39.5587C32.0473 39.0814 31.7716 39.8314 31.5648 39.0132V39.0814C31.427 38.6041 31.1513 38.945 31.0824 39.0814C30.8756 38.945 31.0135 38.536 31.0135 38.3314C30.4621 38.4678 30.6689 38.4678 30.1865 37.7859C29.9108 38.4678 30.4621 38.945 30.1175 39.4223C30.0486 39.0814 29.8419 38.8087 29.5662 38.6723C29.2905 38.945 28.877 39.0814 28.6702 39.5587V39.0814L28.3256 38.8087L28.5324 39.4905C28.4635 39.3541 28.3256 39.0132 28.1878 38.8087C27.8432 38.3996 27.981 39.8314 27.7054 39.1496V39.286C27.6364 38.945 27.3608 39.0814 27.0851 38.945L27.154 39.5587L27.3608 39.4223C27.2229 39.9678 27.0851 39.3541 26.8783 39.3541C26.6716 39.1496 26.8094 38.6723 26.6716 38.4678C26.6027 38.4678 26.5337 38.3314 26.4648 38.4678C26.327 38.6723 26.4648 39.1496 26.4648 39.4223C26.327 38.8087 26.2581 38.8769 25.9824 38.6723C25.9824 38.945 25.9824 39.0814 26.0513 39.1496C25.9824 39.0814 25.9135 38.945 25.9135 38.6723L25.8446 39.0132C25.5 39.4905 25.5 37.9223 25.0865 38.1269C25.2243 38.4678 24.7419 38.0587 24.604 38.3996C24.7419 38.4678 24.5351 39.286 24.604 39.6269C24.2594 39.8314 24.4662 38.945 24.1905 38.8087L24.2594 39.5587C23.9837 39.2178 24.1905 39.1496 23.9148 38.945C23.9837 39.1496 23.777 39.1496 23.9148 39.3541C23.5702 39.4223 23.6392 39.3541 23.3635 39.4223V38.7405C23.2946 38.6723 23.2256 38.945 23.1567 39.0814C23.2256 39.0814 23.2946 39.0814 23.2256 39.1496C23.0878 39.7632 23.0189 38.8087 22.881 39.3541C22.95 39.1496 22.95 38.8087 22.8121 38.7405C22.881 39.1496 22.6054 39.1496 22.6054 39.3541C22.6743 39.0814 22.3297 39.2178 22.3297 38.7405C22.1919 39.0814 22.3986 39.0814 22.3986 39.3541C22.2608 38.8087 21.9162 39.286 21.7783 38.945V39.0814C21.6405 38.7405 21.3648 38.6723 21.0892 38.195L21.1581 38.6041C20.8135 38.8087 20.9513 37.7178 20.7446 37.7859C20.8135 38.3996 20.331 37.7178 20.4 38.3996C20.2621 38.0587 20.0554 37.9223 19.9865 37.445C19.8486 37.7859 20.2621 38.2632 20.0554 38.3996L19.8486 38.1269L19.9175 38.3314C19.9175 38.1269 19.7108 38.0587 19.7108 37.9223C19.6419 38.3314 19.5729 38.536 19.5729 38.8769C19.4351 38.7405 19.2283 39.1496 19.1594 38.8087V39.0132C19.0216 38.3314 18.7459 38.8769 18.677 38.1269L18.6081 38.536C18.4013 38.4678 18.4702 37.7178 18.3324 37.5814C18.2635 37.5814 18.1256 37.445 18.0567 37.5132C18.3324 37.9905 17.9189 38.0587 17.85 38.3314C17.7331 38.3326 17.6198 38.2918 17.5311 38.2165C17.4423 38.1413 17.3842 38.0367 17.3675 37.9223C17.5054 38.2632 17.4365 38.6041 17.6432 38.6041C17.5054 39.286 17.2986 38.4678 17.0229 38.536V38.8769C16.6783 38.6723 16.6783 38.0587 16.4716 37.5132C16.4027 37.9223 16.4716 38.0587 16.5405 38.4678C16.2648 38.7405 15.9202 38.4678 15.6446 38.4678C15.5756 38.7405 15.5756 38.8769 15.7135 39.0132C15.4378 38.6723 15.0932 39.0814 14.8865 38.3314C14.9554 38.6041 14.7486 38.536 14.6797 38.6723V38.3314C14.4729 38.0587 14.1283 37.7859 13.9216 38.0587L13.9905 38.2632C13.5081 38.3996 13.3013 37.1723 12.8189 37.6496C12.75 37.786 12.8878 38.2632 12.75 38.195C12.681 37.9223 12.681 37.3769 12.4743 37.5132V37.9905L12.1297 37.5814C12.1986 37.1723 12.4743 37.3087 12.3365 36.8996C12.1297 37.3769 12.1297 36.4905 11.854 36.9678C11.9229 37.036 11.9919 37.3769 12.0608 37.5814C11.5094 38.1269 11.3027 37.1041 10.7513 37.7178C10.4756 37.3769 10.131 37.2405 9.92429 36.8996C9.92429 37.3769 9.92429 37.786 10.0621 38.195C9.85537 38.2632 9.71753 37.1723 9.5797 37.8541C9.44186 37.2405 8.89051 37.445 8.89051 36.5587C8.89051 36.7632 8.61483 36.5587 8.89051 37.1041C8.54591 36.8314 8.47699 37.9223 8.27024 37.9223C8.20132 37.9223 8.40807 37.3769 8.20132 37.3087C8.20132 37.3769 8.20132 37.445 8.1324 37.445L7.99456 37.2405C7.92564 37.445 8.06348 37.7178 8.06348 37.9223C7.7878 38.1269 7.64997 37.3769 7.30537 37.3769L7.37429 37.5132L7.0297 37.5814V37.6496L6.75402 37.3087V37.5132C6.6851 37.445 6.6851 37.3087 6.61618 37.2405V37.5132C6.54726 37.036 6.20267 36.8314 6.06483 36.8314V36.9678L5.72024 36.3541C5.51348 36.695 5.92699 37.036 5.5824 36.8314L5.65132 37.445C5.37564 37.2405 5.37564 37.5132 5.16888 37.3087C5.2378 37.036 5.37564 37.0359 5.30672 36.7632C5.09997 37.445 4.96213 36.5587 4.75537 36.286C4.82429 36.286 4.89321 36.286 4.96213 36.6269C5.09997 36.6269 5.03105 36.286 5.09997 36.286L5.2378 36.6269L5.30672 36.2178L5.5824 36.5587C5.5824 36.0814 5.85807 36.4905 5.72024 36.0132C5.92699 36.2178 5.99591 35.8769 6.20267 36.3541C6.34051 36.0814 5.99591 36.0132 6.13375 35.945C6.89186 36.3541 7.64997 36.2178 8.40807 36.0814L8.33916 35.8769C8.40807 36.0814 8.47699 36.2859 8.54591 36.4223C8.68375 36.0132 9.16618 35.536 9.37294 36.286V36.0814C9.64861 36.1496 10.0621 35.6723 10.4756 35.7405C10.6135 36.4905 11.027 35.2632 11.1648 36.286L11.0959 36.0814C10.9581 36.3541 11.2337 36.7632 11.3027 37.0359C11.4405 36.3541 11.3027 36.4905 11.4405 35.8769L11.3027 36.0814L11.3716 35.536C11.7851 36.9678 12.1986 34.8541 12.4743 35.945V35.7405C12.681 35.3996 12.8189 36.1496 12.9567 36.286C12.9567 36.0132 12.8878 35.8087 12.8189 35.6041C13.1635 35.3996 13.7148 36.1496 14.0594 35.6723C14.1973 36.0132 13.9905 36.1496 14.1283 36.4223C14.2662 36.2859 14.3351 36.0132 14.1973 35.8087C14.5419 35.1269 15.231 36.2178 15.7135 35.6041C15.9892 36.0132 15.7824 36.2178 16.1959 36.4905C16.127 36.2178 16.3337 35.6041 16.0581 35.536V35.2632C16.4716 35.195 16.954 35.1269 17.1608 35.945C17.1608 35.3314 17.2297 35.8087 17.3675 35.4678C17.4365 35.536 17.3675 35.536 17.3675 35.6041C17.5054 36.1496 17.5743 35.6041 17.7121 35.6723L17.6432 35.536L17.9189 35.8769C17.9878 35.8087 18.0567 35.6723 18.0567 35.4678V35.8769C18.1946 35.8769 18.1256 35.3314 18.3324 35.4678L18.2635 35.8087C18.4013 35.6041 18.5392 36.0814 18.6081 35.6041C18.6081 35.536 18.6081 35.536 18.5392 35.536C18.7459 34.9223 19.0216 35.7405 19.2283 35.4678L19.1594 36.1496C19.3662 36.3541 19.2973 36.0132 19.2973 35.7405C19.4351 35.7405 19.504 35.536 19.7108 35.4678C19.7797 35.6723 19.7797 35.7405 19.7797 35.945L19.9865 35.8087L19.7108 35.6041C19.9865 36.6269 20.4689 35.4678 20.6756 36.4223C20.8135 36.2178 20.6067 36.0132 20.6756 35.8769C21.0202 35.4678 21.5027 36.4905 21.7783 36.0132C22.2608 35.5359 22.881 36.0132 23.4324 35.6723V35.8769L23.8459 35.7405C23.9148 36.1496 24.1905 35.945 24.3973 36.4223V35.945C24.5351 36.0132 24.7419 36.2178 24.8797 35.945L24.8108 35.8087C25.1554 35.6723 25.7067 35.6723 25.9135 36.0132C26.0513 36.0814 26.0513 35.7405 26.0513 35.536C26.2581 35.536 26.3959 35.6723 26.6027 36.0132C26.6716 35.945 26.6716 35.8769 26.7405 35.6723L26.8094 36.1496C26.8783 36.0814 26.8094 35.8087 26.8783 35.6723C27.2229 36.2178 27.6364 35.7405 27.8432 35.7405L27.7743 35.945C27.8432 36.1496 28.05 35.8087 27.981 35.6041C28.4635 35.3314 28.6702 36.286 29.2905 36.1496C29.3594 35.3314 29.8419 36.3541 29.9797 35.4678C30.2554 35.6723 30.3932 35.3314 30.6 35.8769V35.7405C30.7378 35.3996 31.0824 35.6723 31.2892 35.8769V35.6041C31.3581 36.2178 31.8405 36.0132 31.9094 36.6269C31.9094 36.4905 31.8405 36.3541 31.8405 36.286C31.9783 35.7405 32.0473 36.5587 32.254 36.4223C32.254 36.2859 32.3229 36.0814 32.254 36.0132C32.8743 35.3996 33.7013 36.4223 34.4594 36.0132C34.6662 36.0132 34.3905 36.6269 34.6662 36.6269C34.7351 36.3541 34.5283 36.0132 34.7351 35.8769C34.8729 36.2178 34.9419 36.1496 35.0797 36.1496C35.0797 35.945 35.0797 35.8087 34.9419 35.6723C35.0108 35.3996 35.3554 36.1496 35.5621 35.6723C35.5621 35.8769 35.5621 35.945 35.631 36.0814C35.9067 36.6269 36.3202 35.536 36.3202 35.8769C36.3202 35.8769 36.3892 35.945 36.3202 36.0132C36.4581 36.0132 36.5959 35.945 36.527 35.6041C36.5959 35.7405 36.5959 36.0132 36.7337 36.0132L36.6648 35.6723C36.7337 35.7405 36.7337 35.945 36.8027 36.0132L36.7337 36.2178C36.8716 35.945 37.0783 36.6269 37.0783 35.945H37.0094L37.2162 35.6723C37.2851 35.945 37.4229 36.2178 37.5608 36.0814C37.6297 35.3996 37.9743 35.945 38.181 35.8769V35.6723C38.3189 36.0132 38.7324 35.8769 38.6635 35.945C38.8013 35.945 39.0081 35.8087 38.9392 35.536C39.077 35.6723 39.2837 35.6723 39.3527 36.0814L39.6283 35.536C39.7662 36.3541 40.1108 35.195 40.1108 36.1496C40.2486 36.0132 40.2486 35.8087 40.3175 35.6723C40.5243 36.0814 40.731 36.0132 40.8689 35.945V35.8769C41.0756 35.8087 41.2824 36.286 41.5581 36.286L41.627 35.6041C41.7648 35.6723 41.8337 36.2178 41.9716 36.0814V35.8769C42.1094 36.0132 42.3162 35.8087 42.3851 35.6723C42.5919 36.1496 42.7297 36.0132 42.9364 36.4905C43.0743 35.8769 42.7297 36.2178 42.8675 35.6723C43.1432 35.3314 43.4878 35.6723 43.7635 35.945V35.536C43.7635 35.536 44.3837 37.1723 44.2459 37.8541C44.3148 38.3314 44.3837 38.536 44.1081 38.945C44.0392 38.6723 43.7635 38.3314 43.6946 38.8769V38.3996C43.35 38.195 43.6256 39.3541 43.2121 39.3541L43.281 39.2178C43.2121 39.2178 43.1432 38.8769 43.0054 39.0132C43.0054 39.1496 43.0054 39.2178 43.0743 39.286L42.7297 38.6723C42.7297 38.945 42.7297 39.0814 42.7986 39.286C42.454 39.286 42.8675 38.3996 42.454 38.6041C42.3851 38.8087 42.454 38.8769 42.5229 39.0814C42.3162 39.4905 42.1783 39.1496 41.9716 38.8769C41.9716 39.286 42.1094 39.2178 41.9027 39.4905C41.9716 39.2859 41.9716 38.8769 41.8337 38.8769C41.9027 39.286 41.7648 39.0814 41.627 39.2178V38.8087C41.5581 38.7405 41.4892 38.945 41.4202 38.8769L41.5581 38.4678C41.3513 38.0587 41.2135 38.6723 41.0756 38.8769C41.0756 38.945 41.1446 39.0132 41.1446 39.0132C40.9378 39.2178 40.8 39.5587 40.5932 39.1496V39.2178C40.1797 38.8087 40.731 38.5359 40.2486 38.1269C40.1108 38.195 40.3175 39.4905 39.9729 39.0132C40.1797 38.6723 39.7662 38.1269 39.5594 37.9905L39.7662 38.8087C39.6973 38.8087 39.5594 38.6041 39.4905 38.6723V38.4678C39.4905 37.7859 39.2148 38.5359 39.077 38.1269C39.2148 39.0814 39.2837 38.8769 39.2837 39.8314C39.1459 39.2859 39.0081 38.8087 38.7324 38.945L38.9392 39.695C38.5946 39.8314 38.181 38.8087 37.9054 38.195C37.9743 38.7405 37.8364 38.945 37.9743 39.4223L37.6297 39.286L37.6986 39.8996C37.5608 39.286 37.4229 39.695 37.4229 38.945C37.4919 39.0814 37.4229 39.1496 37.4919 39.1496C37.4919 38.945 37.4229 38.3996 37.2851 38.4678C37.1473 38.6723 37.354 38.7405 37.2851 39.0132C37.1473 38.6723 37.1473 39.2178 37.0783 39.0132L37.2162 38.6723C37.1473 38.195 37.0094 38.6723 36.9405 38.3996C37.0783 38.6041 37.0094 38.8769 36.9405 39.1496V39.0814C36.8716 39.0814 36.7337 38.7405 36.6648 39.0132L36.7337 39.6269L36.5959 39.1496C36.527 39.2178 36.527 39.4223 36.5959 39.5587C36.1824 39.9678 36.5959 38.195 36.1135 38.8087C36.1135 39.0132 36.1824 39.2178 36.3202 39.0814C36.3202 39.4905 36.3202 39.695 36.1824 39.8314V39.8996C36.1135 39.5587 35.7689 39.6269 35.631 39.1496Z" fill="#BBBDBF"/>
<path d="M24.604 22.7177C24.5351 22.9223 24.4661 23.0586 24.604 23.2632C24.6729 23.3314 24.7418 23.3995 24.6729 23.5359C24.6729 23.6723 24.5351 23.6723 24.5351 23.8086C24.3972 23.8086 24.3283 23.945 24.2594 23.945C24.1905 24.0132 24.0526 23.945 23.9837 24.0132C23.8459 24.0814 23.8459 24.2177 23.777 24.2859C23.6391 24.4223 23.5013 24.4904 23.2945 24.4904L22.6743 24.695C22.4675 24.7632 22.3297 24.7632 22.1229 24.695C21.9161 24.6268 21.7094 24.6268 21.5026 24.5586C21.3648 24.4904 21.4337 24.3541 21.3648 24.2177C21.2959 24.0814 21.0891 24.0132 21.0202 23.8768C20.7445 23.5359 20.6067 23.1268 20.6067 22.7177C20.6067 22.5132 20.6756 22.2404 20.7445 22.0359C20.8134 21.8995 20.8824 21.8314 20.8824 21.695C20.8824 21.6268 20.8824 21.5586 20.9513 21.4904C21.0202 21.2859 21.227 21.4223 21.3648 21.2859C21.5026 21.1495 21.5026 21.0132 21.7094 20.945C21.9162 20.8768 22.054 21.0132 22.1918 21.0132L22.8121 21.2177C23.1567 21.2859 23.4324 21.2177 23.708 21.2177C24.0526 21.2177 24.0526 21.4223 24.1905 21.695C24.2594 21.7632 24.3283 21.7632 24.3972 21.8314L24.5351 21.9677C24.604 22.0359 24.7418 22.2404 24.7418 22.3768C24.7418 22.5132 24.6729 22.445 24.6729 22.5132C24.604 22.6495 24.604 22.7177 24.604 22.7177Z" fill="#383838"/>
</svg>
